<?xml version="1.0" encoding="UTF-8"?>
<svg width="16px" height="16px" viewBox="0 0 16 16" version="1.1" xmlns="http://www.w3.org/2000/svg" xmlns:xlink="http://www.w3.org/1999/xlink">
    <title>inventory_configuration</title>
    <g id="inventory_configuration" stroke="none" stroke-width="1" fill="none" fill-rule="evenodd">
        <g id="Group" transform="translate(2.000000, 2.000000)" stroke="#FFFFFF">
            <polyline id="Rectangle" transform="translate(6.000000, 6.000000) rotate(-180.000000) translate(-6.000000, -6.000000) " points="8.16632213 2 12 2 12 10 8.8817842e-16 10 -4.4408921e-15 7.22842712"></polyline>
            <rect id="Rectangle" transform="translate(6.000000, 1.500000) rotate(-90.000000) translate(-6.000000, -1.500000) " x="5" y="-3.55271368e-15" width="2" height="3"></rect>
        </g>
        <path d="M11.499962,7.5 L11.4998423,9.07647909 L13.0500084,8.10026097 L13.8283321,8.87858462 L12.7132259,9.99309158 L14.5,10.3991254 L14.5,11.499962 L12.9235209,11.4998423 L13.899739,13.0500084 L13.1214154,13.8283321 L12.0069084,12.7132259 L11.6008746,14.5 L10.4996156,14.5 L10.4984026,12.9229878 L8.94981157,13.899559 L8.17166791,13.1214154 L9.28677411,12.0069084 L7.5,11.6008746 L7.5,10.4996156 L9.07701218,10.4984026 L8.10044096,8.94981157 L8.87858462,8.17166791 L9.99309158,9.28677411 L10.3991254,7.5 L11.499962,7.5 Z" id="Combined-Shape" stroke="#FFFFFF"></path>
    </g>
</svg>