<?xml version="1.0" encoding="UTF-8"?>
<svg width="64px" height="64px" viewBox="0 0 64 64" version="1.1" xmlns="http://www.w3.org/2000/svg" xmlns:xlink="http://www.w3.org/1999/xlink">
    <title>check</title>
    <defs>
        <path d="M15.9289322,10.0294373 L15.9279322,32.3424373 L58.1421356,32.3431458 L58.1421356,42.3431458 L6.14213562,42.3431458 L6.14193219,42.0284373 L5.92893219,42.0294373 L5.92893219,10.0294373 L15.9289322,10.0294373 Z" id="path-1"></path>
        <filter x="-13.4%" y="-15.5%" width="126.8%" height="143.3%" filterUnits="objectBoundingBox" id="filter-2">
            <feOffset dx="0" dy="2" in="SourceAlpha" result="shadowOffsetOuter1"></feOffset>
            <feGaussianBlur stdDeviation="2" in="shadowOffsetOuter1" result="shadowBlurOuter1"></feGaussianBlur>
            <feComposite in="shadowBlurOuter1" in2="SourceAlpha" operator="out" result="shadowBlurOuter1"></feComposite>
            <feColorMatrix values="0 0 0 0 0   0 0 0 0 0   0 0 0 0 0  0 0 0 0.5 0" type="matrix" in="shadowBlurOuter1"></feColorMatrix>
        </filter>
    </defs>
    <g id="check" stroke="none" stroke-width="1" fill="none" fill-rule="evenodd">
        <path d="M56.5,6.5 L56.5,57.5 L8.5,57.5 L8.5,6.5 L56.5,6.5 Z M51.5,11.5 L14.5,11.5 L14.5,52.5 L51.5,52.5 L51.5,11.5 Z" id="Combined-Shape" stroke="#452E13" fill="#FFFFFF"></path>
        <g id="Combined-Shape" transform="translate(32.035534, 26.186292) rotate(-45.000000) translate(-32.035534, -26.186292) ">
            <use fill="black" fill-opacity="1" filter="url(#filter-2)" xlink:href="#path-1"></use>
            <path stroke="#452E13" stroke-width="1" d="M15.4289098,10.5294373 L15.4279098,32.8424289 L57.6421356,32.8431374 L57.6421356,41.8431458 L6.63884754,41.8431458 L6.43224203,10.5294373 L15.4289098,10.5294373 Z" stroke-linejoin="square" fill="#FFFFFF" fill-rule="evenodd"></path>
        </g>
    </g>
</svg>